<svg xmlns="http://www.w3.org/2000/svg" xmlns:xlink="http://www.w3.org/1999/xlink" width="700" height="360" viewBox="0 0 700 360"><defs><marker id="arr" markerWidth="10" markerHeight="7" refX="9" refY="3.5" orient="auto"><polygon points="0 0,10 3.5,0 7"/></marker></defs>
<g font-family="sans-serif" font-size="13">
<rect x="10" y="10" width="680" height="100" fill="#f4f8ff" stroke="#99a"/><text x="20" y="30" font-weight="bold">Client</text>
<rect x="10" y="125" width="680" height="100" fill="#f4fff4" stroke="#9a9"/><text x="20" y="145" font-weight="bold">Support</text>
<rect x="10" y="240" width="680" height="100" fill="#fff8f0" stroke="#a98"/><text x="20" y="260" font-weight="bold">Technique</text>
<rect x="60" y="45" width="150" height="45" rx="6" fill="#fff" stroke="#333"/><text x="135" y="72" text-anchor="middle">Ouvre un ticket</text>
<rect x="480" y="45" width="160" height="45" rx="6" fill="#fff" stroke="#333"/><text x="560" y="72" text-anchor="middle">Reçoit la solution</text>
<rect x="230" y="160" width="170" height="45" rx="6" fill="#fff" stroke="#333"/><text x="315" y="187" text-anchor="middle">Qualifie la demande</text>
<rect x="230" y="275" width="170" height="45" rx="6" fill="#fff" stroke="#333"/><text x="315" y="302" text-anchor="middle">Analyse et corrige</text>
<path d="M135 90 L260 160" stroke="#333" fill="none" marker-end="url(#arr)"/>
<path d="M315 205 L315 275" stroke="#333" fill="none" marker-end="url(#arr)"/>
<path d="M400 297 L560 297 L560 90" stroke="#333" fill="none" marker-end="url(#arr)"/></g></svg>